<?xml version="1.0" encoding="UTF-8"?>
<svg id="Layer_2" data-name="Layer 2" xmlns="http://www.w3.org/2000/svg" xmlns:xlink="http://www.w3.org/1999/xlink" viewBox="0 0 742.65 742.77">
  <defs>
    <style>
      .cls-1 {
        fill: url(#linear-gradient-2);
      }

      .cls-2 {
        fill: url(#linear-gradient-4);
      }

      .cls-3 {
        fill: url(#linear-gradient-3);
      }

      .cls-4 {
        fill: url(#linear-gradient);
      }
    </style>
    <linearGradient id="linear-gradient" x1="134.13" y1="18.58" x2="134.13" y2="273.32" gradientUnits="userSpaceOnUse">
      <stop offset="0" stop-color="#00e6ff"/>
      <stop offset="1" stop-color="#0456dd"/>
    </linearGradient>
    <linearGradient id="linear-gradient-2" x1="608.4" y1="469.45" x2="608.4" y2="724.2" xlink:href="#linear-gradient"/>
    <linearGradient id="linear-gradient-3" x1="363.3" y1="0" x2="363.3" y2="552.8" xlink:href="#linear-gradient"/>
    <linearGradient id="linear-gradient-4" x1="379.23" y1="189.73" x2="379.23" y2="742.77" xlink:href="#linear-gradient"/>
  </defs>
  <g id="Layer_1-2" data-name="Layer 1">
    <g>
      <path class="cls-4" d="M255.23,18.58l-105.66,133.53-79.13,99.75-57.41,21.47C45.84,153.19,137.51,57.29,255.23,18.58Z"/>
      <path class="cls-1" d="M729.5,469.45c-32.81,120.26-124.48,216.15-242.2,254.75l105.9-133.53,79.01-99.87,57.29-21.35Z"/>
      <path class="cls-3" d="M726.61,263.43l-134.25-112.18-140.16-117.24-119.89,165.61c-48.97,67.55-74.3,147.76-74.3,228.81,0,41.86,6.76,83.83,20.51,124.36L.72,393.7c-.24-2.89-.36-5.91-.48-8.93v-.12c-.12-4.34-.24-8.8-.24-13.27s.12-9.05.24-13.39v-.12c.12-2.89.24-5.79.48-8.68l139.8-74.06.72-.72.24-.24L358.36.24h1.09c3.98-.12,7.84-.24,11.82-.24s7.96.12,11.94.24h.12c1.09,0,2.17.12,3.38.12l.24.12h.36v-.12c2.77.12,5.55.24,8.2.48,25.33,1.57,49.94,5.79,73.7,12.18,4.1,1.09,8.32,2.41,12.42,3.74,61.64,19.06,116.4,53.8,159.7,99.63,38.84,41.13,68.51,91.31,85.28,147.03Z"/>
      <path class="cls-2" d="M742.65,371.39c0,4.46,0,8.93-.24,13.27v.12c-.12,2.89-.12,5.79-.36,8.56l-139.68,74.06-.72.72-.36.24-216.99,274.17h-1.09c-3.98.12-7.96.24-11.94.24s-7.84-.12-11.82-.24h-.24c-.97,0-2.05-.12-3.38-.12l-.24-.12h-.24v.12c-2.89-.12-5.55-.24-8.32-.48-25.33-1.57-49.82-5.79-73.46-12.18-4.94-1.33-9.65-2.77-14.35-4.22v-.12c-116.4-36.67-208.07-129.42-243.41-246.42l134.61,112.54,138.83,116.28,120.02-164.4c49.46-67.79,75.03-148.48,75.03-230.02,0-41.61-6.63-83.35-20.27-123.63l278.03,159.46c.24,2.89.24,5.67.36,8.68v.12c.24,4.34.24,8.93.24,13.39Z"/>
    </g>
  </g>
</svg>