<?xml version="1.0" encoding="UTF-8"?>
<svg id="Layer_2" data-name="Layer 2" xmlns="http://www.w3.org/2000/svg" viewBox="0 0 1811.91 357.27">
  <g id="Layer_1-2" data-name="Layer 1">
    <g>
      <g>
        <path d="M122.76,8.93l-50.82,64.23-38.06,47.98-27.62,10.33C22.05,73.68,66.14,27.56,122.76,8.93Z"/>
        <path d="M350.89,225.8c-15.78,57.84-59.87,103.97-116.5,122.53l50.94-64.23,38-48.04,27.56-10.27Z"/>
        <path d="M349.5,126.71l-64.57-53.96-67.42-56.39-57.67,79.66c-23.56,32.49-35.74,71.07-35.74,110.06,0,20.13,3.25,40.32,9.86,59.82L.35,189.37c-.12-1.39-.17-2.84-.23-4.29v-.06c-.06-2.09-.12-4.24-.12-6.38s.06-4.35.12-6.44v-.06c.06-1.39.12-2.79.23-4.18l67.24-35.62.35-.35.12-.12L172.37.12h.52c1.92-.06,3.77-.12,5.69-.12s3.83.06,5.74.12h.06c.52,0,1.04.06,1.62.06l.12.06h.17v-.06c1.33.06,2.67.12,3.94.23,12.18.75,24.02,2.79,35.45,5.86,1.97.52,4,1.16,5.97,1.8,29.65,9.17,55.99,25.88,76.82,47.92,18.68,19.78,32.95,43.92,41.02,70.72Z"/>
        <path d="M357.21,178.64c0,2.15,0,4.29-.12,6.38v.06c-.06,1.39-.06,2.78-.17,4.12l-67.18,35.62-.35.35-.17.12-104.37,131.87h-.52c-1.92.06-3.83.12-5.74.12s-3.77-.06-5.69-.12h-.12c-.46,0-.99-.06-1.62-.06l-.12-.06h-.12v.06c-1.39-.06-2.67-.12-4-.23-12.18-.75-23.96-2.78-35.33-5.86-2.38-.64-4.64-1.33-6.9-2.03v-.06c-55.99-17.64-100.08-62.25-117.08-118.53l64.75,54.13,66.78,55.93,57.73-79.08c23.79-32.61,36.09-71.42,36.09-110.64,0-20.02-3.19-40.09-9.75-59.47l133.73,76.7c.12,1.39.12,2.73.17,4.18v.06c.12,2.09.12,4.29.12,6.44Z"/>
      </g>
      <g>
        <path d="M556.62,87.62h-90.13V30.92h245.86v56.7h-90.56v238.72h-65.17V87.62Z"/>
        <path d="M734.83,30.92h63.05v102.04c8.46-10.44,18.76-18.76,30.89-24.97,12.12-6.2,25.53-9.31,40.2-9.31,11.85,0,22.57,2.05,32.16,6.14,9.59,4.09,17.7,9.73,24.33,16.93,6.62,7.19,11.77,15.8,15.44,25.81,3.66,10.02,5.5,21.09,5.5,33.22v145.57h-63.9v-123.56c0-12.7-3.46-22.78-10.37-30.26-6.91-7.47-15.87-11.21-26.87-11.21-7.05,0-13.4,1.48-19.04,4.44-5.65,2.96-10.58,6.91-14.81,11.85-4.23,4.94-7.48,10.58-9.73,16.92-2.26,6.35-3.53,13.05-3.81,20.1v111.72h-63.05V30.92Z"/>
        <polygon points="1127.52 102.9 1127.52 165.13 1046.27 165.13 1046.27 326.35 983.21 326.35 983.21 102.9 1127.52 102.9"/>
        <rect x="1148.26" y="102.91" width="63.05" height="223.43"/>
        <rect x="1148.26" y="30.92" width="63.05" height="51.46"/>
        <path d="M1312.02,326.34l-83.36-223.43h68.13l49.94,147.26,50.78-147.26h67.7l-83.36,223.43h-69.82Z"/>
        <path d="M1526.14,228.59c2.25,13.26,8.04,24.06,17.35,32.37,9.31,8.33,21.3,12.48,35.97,12.48,9.02,0,17.35-2.26,24.97-6.77,7.62-4.51,13.4-10.01,17.35-16.5h68.13c-2.82,12.13-7.55,23.14-14.18,33-6.63,9.88-14.81,18.27-24.54,25.18-9.73,6.92-20.74,12.27-33.01,16.08-12.27,3.81-25.6,5.71-39.99,5.71-16.92,0-32.52-2.89-46.76-8.67-14.25-5.78-26.52-13.82-36.82-24.12-10.3-10.29-18.41-22.49-24.33-36.6-5.93-14.11-8.89-29.48-8.89-46.13s2.89-32.09,8.67-46.33c5.78-14.24,13.82-26.51,24.12-36.82,10.29-10.3,22.49-18.34,36.6-24.12,14.11-5.78,29.62-8.68,46.55-8.68,15.79,0,30.39,2.33,43.8,6.98,13.4,4.66,25.18,11.29,35.34,19.89,10.16,8.61,18.41,18.91,24.75,30.89,6.35,11.99,10.37,25.18,12.06,39.57.56,6.49.91,11.36,1.06,14.6.14,3.24.21,5.71.21,7.4,0,3.39-.14,6.92-.42,10.58h-167.99ZM1626.43,193.89c-1.98-11.28-7.34-20.53-16.08-27.72-8.75-7.19-19.47-10.79-32.16-10.79s-24.12,3.53-32.58,10.58c-8.46,7.05-14.25,16.36-17.35,27.93h98.17Z"/>
        <path d="M1744.33,40.06h12.88l30.48,79.16h-10.75l-6.62-17.25h-39.11l-6.62,17.25h-10.75l30.48-79.16ZM1766.78,92.52l-15.95-42.06-16.07,42.06h32.02Z"/>
        <path d="M1801.87,40.06h10.04v79.16h-10.04V40.06Z"/>
      </g>
    </g>
  </g>
</svg>